<svg width="56" height="56" viewBox="0 0 56 56" fill="none" xmlns="http://www.w3.org/2000/svg">
<rect width="56" height="56" rx="20" fill="#527246"/>
<path d="M33.3327 22.6667V19.0476C33.3327 18.2393 32.7708 17.4642 31.7706 16.8926C30.7704 16.3211 29.4138 16 27.9993 16C26.5849 16 25.2283 16.3211 24.2281 16.8926C23.2279 17.4642 22.666 18.2393 22.666 19.0476V22.6667" stroke="white" stroke-width="2" stroke-linecap="round" stroke-linejoin="round"/>
<path d="M35 23.6665L21 23.6665C19.3431 23.6665 18 25.0096 18 26.6665V37.6665C18 39.3234 19.3431 40.6665 21 40.6665H35C36.6569 40.6665 38 39.3234 38 37.6665V26.6665C38 25.0096 36.6569 23.6665 35 23.6665Z" stroke="white" stroke-width="2" stroke-linecap="round" stroke-linejoin="round"/>
</svg>
