<svg width="56" height="56" viewBox="0 0 56 56" fill="none" xmlns="http://www.w3.org/2000/svg">
<rect width="56" height="56" rx="20" fill="#527246"/>
<path d="M31.2727 40H29.0909V37.8182H31.2727V40ZM35.6364 37.8182H33.4545V40H35.6364V37.8182ZM31.2727 33.4545H29.0909V35.6364H31.2727V33.4545ZM22.5455 37.8182H20.3636V40H22.5455V37.8182ZM22.5455 33.4545H20.3636L20.3636 35.6364H22.5455L22.5455 33.4545ZM35.6364 33.4545H33.4545V35.6364H35.6364V33.4545ZM31.2727 29.0909H29.0909V31.2727H31.2727V29.0909ZM35.6364 29.0909H33.4545V31.2727H35.6364V29.0909ZM37.8182 24.7273C38.3968 24.7273 38.9518 24.9571 39.361 25.3663C39.7701 25.7755 40 26.3304 40 26.9091V40H37.8182V26.9091L26.9091 26.9091L26.9091 40H24.7273L24.7273 31.2727H18.1818L18.1818 40H16L16 31.2727C16 30.6941 16.2299 30.1391 16.639 29.7299C17.0482 29.3208 17.6032 29.0909 18.1818 29.0909H24.7273V26.9091C24.7273 26.3304 24.9571 25.7755 25.3663 25.3663C25.7755 24.9571 26.3304 24.7273 26.9091 24.7273V22.5455C26.9091 21.9668 27.139 21.4118 27.5481 21.0027C27.9573 20.5935 28.5123 20.3636 29.0909 20.3636H31.2727V17.0909C31.2727 16.4884 31.7611 16 32.3636 16C32.9661 16 33.4545 16.4884 33.4545 17.0909V20.3636L35.6364 20.3636C36.215 20.3636 36.77 20.5935 37.1791 21.0027C37.5883 21.4118 37.8182 21.9668 37.8182 22.5455V24.7273ZM35.6364 24.7273V22.5455L29.0909 22.5455V24.7273H35.6364Z" fill="white"/>
</svg>
