<svg width="56" height="56" viewBox="0 0 56 56" fill="none" xmlns="http://www.w3.org/2000/svg">
<rect width="56" height="56" rx="20" fill="#527246"/>
<path d="M36.3446 20.2179C35.6556 18.5733 34.4959 17.1689 33.0111 16.1812C31.5264 15.1935 29.7827 14.6665 27.9993 14.6665C26.216 14.6665 24.4723 15.1935 22.9876 16.1812C21.5028 17.1689 20.3431 18.5733 19.6541 20.2179C18.1715 20.9044 16.915 21.9988 16.0316 23.3731C15.1483 24.7474 14.6746 26.3448 14.666 27.9784C14.653 32.599 18.3994 36.4531 23.016 36.5721C24.4126 36.6086 25.7968 36.3016 27.047 35.6782L27.047 40.381C27.047 40.6335 27.1473 40.8757 27.3259 41.0543C27.5045 41.2328 27.7468 41.3332 27.9993 41.3332C28.2519 41.3332 28.4942 41.2328 28.6728 41.0543C28.8514 40.8757 28.9517 40.6335 28.9517 40.381L28.9517 35.6782C30.1348 36.2682 31.4392 36.5742 32.7612 36.5721H32.9827C37.5993 36.4531 41.3457 32.6014 41.3326 27.9808C41.3247 26.3468 40.8513 24.7488 39.9679 23.374C39.0845 21.9992 37.8277 20.9045 36.3446 20.2179ZM32.9339 34.6677C31.5585 34.7061 30.2053 34.315 29.0624 33.5489C29.0251 33.5251 28.9882 33.5024 28.9517 33.481V28.5902L34.1398 25.9978C34.2517 25.9419 34.3516 25.8644 34.4336 25.7699C34.5156 25.6754 34.5781 25.5656 34.6177 25.4469C34.6573 25.3282 34.6731 25.2029 34.6642 25.0781C34.6553 24.9533 34.622 24.8314 34.566 24.7195C34.51 24.6076 34.4326 24.5078 34.338 24.4258C34.2435 24.3438 34.1337 24.2813 34.015 24.2417C33.8963 24.2021 33.7709 24.1863 33.6461 24.1952C33.5212 24.2041 33.3994 24.2374 33.2874 24.2934L28.9517 26.462V23.2412C28.9517 22.9886 28.8514 22.7465 28.6728 22.5679C28.4942 22.3893 28.2519 22.289 27.9993 22.289C27.7468 22.289 27.5045 22.3893 27.3259 22.5679C27.1473 22.7465 27.047 22.9886 27.047 23.2412V29.3187L22.7113 27.15C22.4852 27.037 22.2235 27.0184 21.9837 27.0983C21.7439 27.1782 21.5457 27.3501 21.4327 27.5761C21.3197 27.8021 21.3011 28.0638 21.381 28.3035C21.4609 28.5433 21.6328 28.7415 21.8589 28.8545L27.047 31.4469V33.4774C27.0097 33.4989 26.9728 33.5215 26.9363 33.5453C25.7935 34.312 24.4405 34.7043 23.0648 34.6677C21.5592 34.6301 20.1106 34.0838 18.9551 33.1179C17.7996 32.152 17.0053 30.8233 16.7016 29.3484C16.3979 27.8734 16.6027 26.3391 17.2826 24.9954C17.9625 23.6517 19.0774 22.5778 20.4458 21.9486C20.8786 21.7503 21.2207 21.3963 21.4041 20.9571C21.9477 19.6581 22.8633 18.5488 24.0357 17.7686C25.2081 16.9884 26.585 16.5721 27.9934 16.5721C29.4017 16.5721 30.7787 16.9884 31.9511 17.7686C33.1235 18.5488 34.039 19.6581 34.5827 20.9571C34.766 21.3963 35.1082 21.7503 35.541 21.9486C36.9094 22.5778 38.0243 23.6517 38.7042 24.9954C39.3841 26.3391 39.5889 27.8734 39.2852 29.3484C38.9815 30.8233 38.1872 32.152 37.0317 33.1179C35.8762 34.0838 34.4276 34.6301 32.922 34.6677H32.9339Z" fill="white"/>
</svg>
